<?xml version="1.0" encoding="UTF-8" standalone="no"?>
<svg
   xmlns:dc="http://purl.org/dc/elements/1.1/"
   xmlns:cc="http://creativecommons.org/ns#"
   xmlns:rdf="http://www.w3.org/1999/02/22-rdf-syntax-ns#"
   xmlns:svg="http://www.w3.org/2000/svg"
   xmlns="http://www.w3.org/2000/svg"
   xmlns:sodipodi="http://sodipodi.sourceforge.net/DTD/sodipodi-0.dtd"
   xmlns:inkscape="http://www.inkscape.org/namespaces/inkscape"
   version="1.1"
   id="svg2"
   inkscape:version="1.0.2 (e86c870879, 2021-01-15)"
   sodipodi:docname="linkedin.svg"
   x="0px"
   y="0px"
   width="1200px"
   height="1200px"
   viewBox="0 0 1200 1200"
   enable-background="new 0 0 1200 1200"
   xml:space="preserve"><metadata
   id="metadata312"><rdf:RDF><cc:Work
       rdf:about=""><dc:format>image/svg+xml</dc:format><dc:type
         rdf:resource="http://purl.org/dc/dcmitype/StillImage" /><dc:title></dc:title></cc:Work></rdf:RDF></metadata><defs
   id="defs310"><filter
     style="color-interpolation-filters:sRGB;"
     inkscape:label="Invert"
     id="filter318"><feColorMatrix
       type="hueRotate"
       values="180"
       result="color1"
       id="feColorMatrix314" /><feColorMatrix
       values="-1 0 0 0 1 0 -1 0 0 1 0 0 -1 0 1 -0.21 -0.72 -0.07 1 0 "
       result="color2"
       id="feColorMatrix316" /></filter></defs><sodipodi:namedview
   pagecolor="#ffffff"
   bordercolor="#666666"
   borderopacity="1"
   objecttolerance="10"
   gridtolerance="10"
   guidetolerance="10"
   inkscape:pageopacity="0"
   inkscape:pageshadow="2"
   inkscape:window-width="2558"
   inkscape:window-height="1419"
   id="namedview308"
   showgrid="false"
   inkscape:zoom="0.79666667"
   inkscape:cx="402.30126"
   inkscape:cy="600"
   inkscape:window-x="0"
   inkscape:window-y="19"
   inkscape:window-maximized="0"
   inkscape:current-layer="svg2" />
<path
   id="path13441"
   inkscape:connector-curvature="0"
   d="M0,0v1200h1200V0H0z M294.287,235.913  c47.53,0.535,94.35,33.325,96.387,90.088c1.016,50.475-42.971,88.921-97.632,90.088h-1.318  c-47.057-0.543-93.012-34.156-95.142-90.088C197.253,276.088,239.209,237.097,294.287,235.913z M804.199,474.39  c52.255,0.324,101.572,15.826,142.09,57.129c42.107,46.96,55.624,111.71,57.129,177.539v299.414H830.859V729.419  c-0.383-52.302-18.299-115.877-87.524-117.993c-40.571,0.431-69.18,24.007-88.77,63.428c-5.347,12.687-6.118,27.273-6.372,41.821  v291.797H475.708c0.66-145.877,1.567-291.743,1.245-437.622c0-41.438-0.399-69.34-1.245-83.716h172.485v73.535  c14.641-20.823,30.879-40.571,52.661-56.47C730.398,483.114,765.889,475.031,804.199,474.39z M206.763,487.134h172.485v521.338  H206.763V487.134L206.763,487.134z"
   style="filter:url(#filter318)" />
</svg>
